<svg width="100" height="100" viewBox="0 0 100 100" fill="none" xmlns="http://www.w3.org/2000/svg">
<path fill-rule="evenodd" clip-rule="evenodd" d="M92.7576 0H7.5375C3.46094 0 0 3.22344 0 7.19551V92.8008C0 96.7766 2.27129 100 6.34609 100H91.5662C95.648 100 100 96.7766 100 92.8008V7.19551C100 3.22344 96.8377 0 92.7576 0ZM38.0943 38.0943H51.5568V44.9568H51.7043C53.7561 41.2566 59.8178 37.5004 67.3139 37.5004C81.6996 37.5004 85.715 45.1387 85.715 59.2852V85.715H71.4283V61.8912C71.4283 55.5578 68.8996 50 62.9855 50C55.8043 50 52.3811 54.8611 52.3811 62.8434V85.715H38.0943V38.0943ZM14.285 85.715H28.5717V38.0943H14.285V85.715ZM30.357 21.4283C30.357 26.3615 26.3615 30.357 21.4283 30.357C16.4951 30.357 12.4996 26.3615 12.4996 21.4283C12.4996 16.4951 16.4951 12.4996 21.4283 12.4996C26.3615 12.4996 30.357 16.4951 30.357 21.4283Z" fill="#FAFAFA"/>
</svg>
