<svg width="57" height="59" viewBox="0 0 57 59" fill="none" xmlns="http://www.w3.org/2000/svg">
<path d="M54.5855 41.9407C49.2115 43.3025 43.5367 42.9059 38.4091 40.8099C33.2814 38.714 28.9763 35.0313 26.1367 30.3121C23.2972 25.5929 22.0758 20.0904 22.655 14.627C23.2342 9.16352 25.5828 4.03234 29.3501 0C26.9001 0.018133 24.4623 0.342306 22.0943 0.964823C14.4577 2.9912 7.94682 7.93879 3.99378 14.7192C0.040801 21.4995 -1.0304 29.5573 1.01581 37.1199C3.06202 44.6824 8.05806 51.1302 14.9048 55.0449C21.7515 58.9596 29.8882 60.0204 37.5248 57.994C41.8499 56.8422 45.8525 54.7279 49.2274 51.8122C52.6024 48.8965 55.2607 45.2564 57 41.1691C56.2089 41.4667 55.403 41.7243 54.5855 41.9407Z" fill="currentColor"/>
</svg>
