<svg width="92" height="92" viewBox="0 0 92 92" fill="none" xmlns="http://www.w3.org/2000/svg">
<path fill-rule="evenodd" clip-rule="evenodd" d="M78.5951 13.3689C69.9479 4.75214 58.4471 0.00437179 46.1932 0C20.943 0 0.393162 20.4491 0.384376 45.5847C0.379983 53.62 2.49076 61.463 6.49926 68.3749L0 92L24.2838 85.6608C30.9741 89.2939 38.5079 91.2065 46.1735 91.2088H46.1932C71.439 91.2088 91.9913 70.7574 92 45.6218C92.0043 33.44 87.2446 21.9879 78.5951 13.3711V13.3689ZM46.1932 83.51H46.1779C39.3469 83.5079 32.6457 81.6803 26.7988 78.2288L25.4084 77.4071L10.9976 81.1689L14.8435 67.1856L13.9386 65.7517C10.1278 59.7188 8.11363 52.7456 8.11803 45.587C8.12682 24.6963 25.2063 7.69872 46.2088 7.69872C56.3781 7.70309 65.9372 11.6487 73.1259 18.8118C80.315 25.9729 84.2707 35.4947 84.2664 45.6175C84.2574 66.5104 67.1781 83.5079 46.1932 83.5079V83.51ZM67.0769 55.1327C65.9326 54.5622 60.3055 51.8079 59.2554 51.4276C58.2056 51.0472 57.4435 50.8572 56.6812 51.9981C55.9191 53.1393 53.7249 55.7055 53.0572 56.4639C52.3894 57.2246 51.7216 57.3187 50.5773 56.7479C49.4331 56.1775 45.7452 54.9753 41.3721 51.0952C37.9699 48.0743 35.6722 44.3453 35.0047 43.2042C34.337 42.0632 34.9344 41.4467 35.5054 40.8806C36.0193 40.3692 36.6497 39.5494 37.2229 38.8849C37.7964 38.2203 37.9853 37.744 38.3673 36.9853C38.7496 36.2246 38.5585 35.5603 38.273 34.9896C37.9873 34.4191 35.6988 28.8122 34.7433 26.5324C33.8141 24.3115 32.8698 24.6132 32.1691 24.5761C31.5013 24.5432 30.7392 24.5367 29.9749 24.5367C29.2105 24.5367 27.9716 24.8209 26.9218 25.9619C25.8719 27.1028 22.9154 29.8593 22.9154 35.4639C22.9154 41.0686 27.0163 46.4875 27.5895 47.2482C28.1627 48.0089 35.6612 59.5133 47.1421 64.449C49.8724 65.6228 52.005 66.3245 53.6677 66.8491C56.409 67.7169 58.904 67.5946 60.8764 67.3016C63.0752 66.9738 67.6481 64.5452 68.6013 61.8849C69.5546 59.2246 69.5546 56.9425 69.2691 56.4682C68.9837 55.9939 68.2193 55.7075 67.0749 55.137L67.0769 55.1327Z" fill="black"/>
</svg>
